<?xml version="1.0" encoding="UTF-8"?>
<svg id="Artwork" xmlns="http://www.w3.org/2000/svg" version="1.1" viewBox="0 0 150 150">
  <defs>
    <style>
      .cls-1 {
        fill: none;
      }

      .cls-1, .cls-2 {
        stroke-width: 0px;
      }

      .cls-2 {
        fill: #000;
      }
    </style>
  </defs>
  <circle class="cls-1" cx="75" cy="75" r="75"/>
  <circle class="cls-2" cx="75" cy="38.5" r="10.1"/>
  <path class="cls-2" d="M85.6,67.3l22.2-6.1c2.9-.8,4.6-3.7,3.8-6.6h0c-.8-2.9-3.8-4.5-6.7-3.7l-24.4,6.8c-3.6,1.1-7.4,1.1-11,0l-24.4-6.8c-2.9-.8-5.9.9-6.7,3.7h0c-.8,2.9.9,5.8,3.7,6.6h0l22.2,6.1c1.8.5,3,2.1,3,3.9v7.3c0,3.6-.8,7.1-2.4,10.3l-11.9,24.7c-1.3,2.7-.2,5.8,2.5,7.1h0c2.7,1.3,5.9.2,7.2-2.5l12.1-24.9,12.1,24.9c1.3,2.7,4.5,3.8,7.2,2.5h0c2.7-1.2,3.8-4.4,2.6-7.1h0l-11.9-24.7c-1.6-3.2-2.4-6.7-2.4-10.3v-7.3c0-1.8,1.2-3.4,2.9-3.9h.3Z"/>
</svg>